/* XPM */
static char *_579791064360[] = {
/* columns rows colors chars-per-pixel */
"251 48 91 1 ",
"  c #000000",
". c #090406",
"X c #050807",
"o c #0A0907",
"O c #050609",
"+ c #0B0608",
"@ c #060909",
"# c #0A0A0A",
"$ c #090D10",
"% c #130E12",
"& c #0F1012",
"* c #111111",
"= c #545557",
"- c #575759",
"; c #565A5D",
": c #5C5D5D",
"> c #5D5E60",
", c #5C6562",
"< c #5F6865",
"1 c #5D646A",
"2 c #52766A",
"3 c #5E7374",
"4 c #636463",
"5 c #626967",
"6 c #65656B",
"7 c #636B6B",
"8 c #6B6C6C",
"9 c #65716F",
"0 c #6C706F",
"q c #656C72",
"w c #6C6C73",
"e c #6C7073",
"r c #677E76",
"t c #6D7874",
"y c #6F767C",
"u c #757676",
"i c #717A77",
"p c #76767C",
"a c #737B7A",
"s c #7B7B7B",
"d c #7D807F",
"f c #73827D",
"g c #757C82",
"h c #7D7C84",
"j c #817F80",
"k c #6C8A80",
"l c #7E8482",
"z c #7F8885",
"x c #7D8389",
"c c #828383",
"v c #808B87",
"b c #83868A",
"n c #858A8B",
"m c #8B8B8B",
"M c #908C8D",
"N c #87908F",
"B c #8A908E",
"V c #8B8B91",
"C c #918F90",
"Z c #8D9693",
"A c #8D949A",
"S c #939393",
"D c #989697",
"F c #959897",
"G c #999896",
"H c #94959B",
"J c #98979F",
"K c #949B9C",
"L c #9B9C9B",
"P c #A09196",
"I c #96A09F",
"U c #9BA09F",
"Y c #969DA3",
"T c #9C9BA2",
"R c #86A3A1",
"E c #9CA2A1",
"W c #9EA3A9",
"Q c #A3A3A4",
"! c #A1AAA7",
"~ c #A3A5A9",
"^ c #A5AAAB",
"/ c #ABACAC",
"( c #AEAEB0",
") c #ADB2B0",
"_ c #B2B4B4",
"` c #B3B2B8",
"' c #B4B8BB",
"] c #BBBCBB",
"[ c #C3C3C3",
"{ c gray81",
"} c gray82",
/* pixels */
"                                                                                                                                                                                                                                                           ",
"                                                                                                                                                                                                                                                           ",
"                                                                                                                                                                                                                                                           ",
"                                                                                                                                                                                                                                                           ",
"                                                                                                                                                                                                                                                           ",
"                                                                                                                                                                                                                                                           ",
"                                                                                                                                                                                                                                                           ",
"                                                                                                                                                                                                                                                           ",
"         @  X    &  XX  X  jX .XX X  X X  X            X   . X   X.        X   X X   .    .  X    . X .  . .   .  X  X    O   .              O   . .O ..        .   .           X . .  . . X . X   .   .           O     .  oG#      .m       .            ",
"        o o  # .  XXL @   >o  X       XX     X                       X                            X                      O  O  OOO OO  OOO OO  O                 X      O O  OO       X                       X           O  o #       # . X  #            ",
"        O  O X  X _  XoXO   uVmsffrfffffsuuusuuussssssssussuuuuuuuuusuuusuuuuuusuuuussusssssssssaiiiiaaaiiiiiiiiiitfafispyypgggghhhhhhhhaaaaaagaggggggggaiaaiaifiiiiiiuiagyyyggyitiiaaafaaiiaaiaiiiiiiiittiiiiitgpgghppgcsp4Sbu 4 *n  #  / X#o.            ",
"          .# X  XmXa   L7 wYbHSVkfffffffccjcccccccccccccjcjcccccccjcccccccccccjccccccjjcnmmcnncmzlccllccllllcllllldlzcvvxxxxxbbbVVVVVbVVzxzxzxzxnbnnbnbmvzzvzzzzldlldlllxxxxxxxxddlccvccccvdzccclllcllcczdllflllbjjbjccbZ7bnVJK,X   . 7  .n    X           ",
"        .#  .   7 LF], X b'8 O$     .                                                                                      O O  O    O    O O              X  X            O                                             O  O OYd.  *8cGt  i # .           ",
"          . .X{.X4Fuus  6blO O &. .   .                                                           .    .   .. .          .  O .                    ..              . O .        .     .     .     . .  .         O      @@   # -ms   L50)B . .             ",
"         o o S LGB  X XcQc  . *   X                                                               . .   .      .   X                     OO O          .                         .  .      .      .                X     O  XO # SS X.# nnF O /            ",
"          & m@nGn @ X Lu X   @ ..   . .                                                                                 O   O     O   O         O                            O         X                                .    .  . CQ4   XdBZ   D           ",
"    .  OO   .T~  X . [/  .w @                                                                                                                                                                                            o o  . .  uLsX .  m/z  0X      o  ",
" #  X .  [ -TV     SSm#   EVO                                                                                                                                                                                                $e c. @X'G O # 7'~ X *  O . & ",
"   o X .p p/s OOo dSs      nWO                                                                                                                                                                                          o  o 0jm  *  XjSO  @ wDHX. ]#.  *# ",
"#    .o4ObQ      _m Oo  XX 8~ O                                                                                                                                                                                           O #QB    o .XSWaO % @AL   m  &  o",
" O  .] oSh. O# cLS o    . O@K +.                                                                                                                                                                                        X X. 4P. X  O   9NsO OO 8}s#  . * #",
"o  onXLLp     O(Q   @.   $ >^$                                                                                                                                                                                               s7  O  X .o 7Le  OO s^C   [oO ",
" . m M6p @OO e/h # @  .    ;H .#                                                                                                                                                                                            oCu .       O  Hs@   .u0m8  / .",
" O: QC O@   uLp o .    X   w!                                                                                                                                                                                            .X  S4  o  .  OO.O EN @ . .mSsX ~ ",
"  O ~VOO   OpVp    . X     8B.                                                                                                                                                                                           .  XC0. O      ..  UZ . X  nQ4X / ",
" o  +~>p  O  ODHX    .     sQ                                                                                                                                                                                              O c8X . ## o  X8L, X   Xs^X  .  ",
"o  oO p`h  *   YS   o o   . L #X                                                                                                                                                                                        X  o c8   # X .  uL .  XO:BB .  4X ",
" #O  O+pVK   O@ uSc# @O  # OSo                                                                                                                                                                                           .   SnX X &. X tU o+   ,^c    u O ",
"&   SO   ~(6  O  uLuo  X@  m~ ##                                                                                                                                                                                         #  .Gm . # #  QzX   +Xmz0  * j.. .",
"    OmOOO cx6O # . cn. .o .cjo                                                                                                                                                                                             X.4c4    #uSSX  * mGs  X  /  X X",
"&    #   O u^b+    .GD   .ms  .X                                                                                                                                                                                           # *4~s   jM4 X # dFS X  4oX   # ",
" o  # .oTO  Oub,  X X_L  @c oX                                                                                                                                                                                             X#   o  cQ8#  o K!tX   _X X  O .",
"        .     j/0   # MS.+  X  X          O  O     O    O     O  O   O     O O   O    O              O   O   O                                            X   X O . O  O              X   X X                          X  . X    XLS .  @ UnX              ",
"           U o Lsc   #.S/  X&            .                              O               O   O   O .              O O  X  XX    X                 X.  O X         X    O   O   O  .                                 X        X# . Sj     iEv  X#s           ",
"          oO. o i/Q 8M  rzd # oo                          O    O                         . . .O        .         X   XX                           .       X X X    .   O         . ..                                     @ @  iGs  4[ 8/<X   S            ",
"        .   O#co  SL^X.  f!U #   X     X      O      O  O  OO      O        O O    O             O OO O       O             X     X   X X    X         .        O   O   O   O                           O      O X  X   X    #sL     SSs    &. #           ",
"         X *O  Q # mo .O .iLUZFzLGLSLGLS~TTWTWWTAAAAAAAASHHHAASAYHHTTYTTTTTTTTTTYTHHHHTHWWWW~W~~YKHJJYJHYYYYYYYYULLLLLULPPPPPPPPSZZZZZZFZZZZZZZZUUUUQUQEUQUUQUEERRRRRRRRAYAYYAYYLGIGLGGIEEIUUEUEIIIGIIIIAAAAAAAASZZZZZZSGN(ESBF,o O # soX# m .@            ",
"        . &  ##. 0 X *^L o  iz9f88888888666666667qqqqqqqqqq6qqqq6w6wwwwwwywwwwwww66www6w671qqqqqqqqq7qqq111111114,,,4,44222222227795977777755975,,<555578988888893333333qeqqeqqq,,,<,,<,<<<<<5<<,,,<,,,<1qqqqqq1755557574 u d7.  # u .    Q o              ",
"               ..X( s.  o ..   @        OOO O OO O O OO  OOO  O  OO   O OOO  OO O O        OO      O O  OO O O O  XX                     X            X              O  O OO         X    X              O  O  O  X      &  *  ./ o. so   .   #            ",
"            # #    #  o   i  X.    .   .        X           O  .                      O . O  .     .   O              X  .  X     X X      X X X   .  X  X X    O O   O     O   X X   XX                         .   X  X X. XXQ.O  O  Q.   X .            ",
"                                                                                                                                                                                                                                                           ",
"                                                                                                                                                                                                                                                           ",
"                                                                                                                                                                                                                                                           ",
"                                                                                                                                                                                                                                                           ",
"                                                                                                                                                                                                                                                           ",
"                                                                                                                                                                                                                                                           ",
"                                                                                                                                                                                                                                                           ",
"                                                                                                                                                                                                                                                           "
};
